<svg width="200" height="157" viewBox="0 0 200 157" fill="none" xmlns="http://www.w3.org/2000/svg">
<path d="M-1.08601 5.93111L-2.91232 0L-4.73862 5.93111L-9 10.4667L-2.91232 9.07111L3.17537 10.4667L-1.08601 5.93111Z" fill="white"/>
<path d="M27.0318 5.93111L25.2055 0L23.3792 5.93111L19.1178 10.4667L25.2055 9.07111L31.2932 10.4667L27.0318 5.93111Z" fill="white"/>
<path d="M53.3233 0L55.1496 5.93111L59.411 10.4667L53.3233 9.07111L47.2356 10.4667L51.497 5.93111L53.3233 0Z" fill="white"/>
<path d="M83.2674 5.93111L81.4411 0L79.6148 5.93111L75.3534 10.4667L81.4411 9.07111L87.5288 10.4667L83.2674 5.93111Z" fill="white"/>
<path d="M109.559 0L111.385 5.93111L115.647 10.4667L109.559 9.07111L103.471 10.4667L107.733 5.93111L109.559 0Z" fill="white"/>
<path d="M139.503 5.93111L137.677 0L135.85 5.93111L131.589 10.4667L137.677 9.07111L143.764 10.4667L139.503 5.93111Z" fill="white"/>
<path d="M165.795 0L167.621 5.93111L171.882 10.4667L165.795 9.07111L159.707 10.4667L163.968 5.93111L165.795 0Z" fill="white"/>
<path d="M195.739 5.93111L193.912 0L192.086 5.93111L187.825 10.4667L193.912 9.07111L200 10.4667L195.739 5.93111Z" fill="white"/>
<path d="M-2.91232 20.9333L-1.08601 26.8644L3.17537 31.4L-2.91232 30.0044L-9 31.4L-4.73862 26.8644L-2.91232 20.9333Z" fill="white"/>
<path d="M27.0318 26.8644L25.2055 20.9333L23.3792 26.8644L19.1178 31.4L25.2055 30.0044L31.2932 31.4L27.0318 26.8644Z" fill="white"/>
<path d="M53.3233 20.9333L55.1496 26.8644L59.411 31.4L53.3233 30.0044L47.2356 31.4L51.497 26.8644L53.3233 20.9333Z" fill="white"/>
<path d="M83.2674 26.8644L81.4411 20.9333L79.6148 26.8644L75.3534 31.4L81.4411 30.0044L87.5288 31.4L83.2674 26.8644Z" fill="white"/>
<path d="M109.559 20.9333L111.385 26.8644L115.647 31.4L109.559 30.0044L103.471 31.4L107.733 26.8644L109.559 20.9333Z" fill="white"/>
<path d="M139.503 26.8644L137.677 20.9333L135.85 26.8644L131.589 31.4L137.677 30.0044L143.764 31.4L139.503 26.8644Z" fill="white"/>
<path d="M165.795 20.9333L167.621 26.8644L171.882 31.4L165.795 30.0044L159.707 31.4L163.968 26.8644L165.795 20.9333Z" fill="white"/>
<path d="M195.739 26.8644L193.912 20.9333L192.086 26.8644L187.825 31.4L193.912 30.0044L200 31.4L195.739 26.8644Z" fill="white"/>
<path d="M-2.91232 41.8667L-1.08601 47.7978L3.17537 52.3333L-2.91232 50.9378L-9 52.3333L-4.73862 47.7978L-2.91232 41.8667Z" fill="white"/>
<path d="M27.0318 47.7978L25.2055 41.8667L23.3792 47.7978L19.1178 52.3333L25.2055 50.9378L31.2932 52.3333L27.0318 47.7978Z" fill="white"/>
<path d="M53.3233 41.8667L55.1496 47.7978L59.411 52.3333L53.3233 50.9378L47.2356 52.3333L51.497 47.7978L53.3233 41.8667Z" fill="white"/>
<path d="M83.2674 47.7978L81.4411 41.8667L79.6148 47.7978L75.3534 52.3333L81.4411 50.9378L87.5288 52.3333L83.2674 47.7978Z" fill="white"/>
<path d="M109.559 41.8667L111.385 47.7978L115.647 52.3333L109.559 50.9378L103.471 52.3333L107.733 47.7978L109.559 41.8667Z" fill="white"/>
<path d="M139.503 47.7978L137.677 41.8667L135.85 47.7978L131.589 52.3333L137.677 50.9378L143.764 52.3333L139.503 47.7978Z" fill="white"/>
<path d="M165.795 41.8667L167.621 47.7978L171.882 52.3333L165.795 50.9378L159.707 52.3333L163.968 47.7978L165.795 41.8667Z" fill="white"/>
<path d="M195.739 47.7978L193.912 41.8667L192.086 47.7978L187.825 52.3333L193.912 50.9378L200 52.3333L195.739 47.7978Z" fill="white"/>
<path d="M-2.91232 62.8L-1.08601 68.7311L3.17537 73.2667L-2.91232 71.8711L-9 73.2667L-4.73862 68.7311L-2.91232 62.8Z" fill="white"/>
<path d="M27.0318 68.7311L25.2055 62.8L23.3792 68.7311L19.1178 73.2667L25.2055 71.8711L31.2932 73.2667L27.0318 68.7311Z" fill="white"/>
<path d="M53.3233 62.8L55.1496 68.7311L59.411 73.2667L53.3233 71.8711L47.2356 73.2667L51.497 68.7311L53.3233 62.8Z" fill="white"/>
<path d="M83.2674 68.7311L81.4411 62.8L79.6148 68.7311L75.3534 73.2667L81.4411 71.8711L87.5288 73.2667L83.2674 68.7311Z" fill="white"/>
<path d="M109.559 62.8L111.385 68.7311L115.647 73.2667L109.559 71.8711L103.471 73.2667L107.733 68.7311L109.559 62.8Z" fill="white"/>
<path d="M139.503 68.7311L137.677 62.8L135.85 68.7311L131.589 73.2667L137.677 71.8711L143.764 73.2667L139.503 68.7311Z" fill="white"/>
<path d="M165.795 62.8L167.621 68.7311L171.882 73.2667L165.795 71.8711L159.707 73.2667L163.968 68.7311L165.795 62.8Z" fill="white"/>
<path d="M195.739 68.7311L193.912 62.8L192.086 68.7311L187.825 73.2667L193.912 71.8711L200 73.2667L195.739 68.7311Z" fill="white"/>
<path d="M-2.91232 83.7333L-1.08601 89.6644L3.17537 94.2L-2.91232 92.8044L-9 94.2L-4.73862 89.6644L-2.91232 83.7333Z" fill="white"/>
<path d="M27.0318 89.6644L25.2055 83.7333L23.3792 89.6644L19.1178 94.2L25.2055 92.8044L31.2932 94.2L27.0318 89.6644Z" fill="white"/>
<path d="M53.3233 83.7333L55.1496 89.6644L59.411 94.2L53.3233 92.8044L47.2356 94.2L51.497 89.6644L53.3233 83.7333Z" fill="white"/>
<path d="M83.2674 89.6644L81.4411 83.7333L79.6148 89.6644L75.3534 94.2L81.4411 92.8044L87.5288 94.2L83.2674 89.6644Z" fill="white"/>
<path d="M109.559 83.7333L111.385 89.6644L115.647 94.2L109.559 92.8044L103.471 94.2L107.733 89.6644L109.559 83.7333Z" fill="white"/>
<path d="M139.503 89.6644L137.677 83.7333L135.85 89.6644L131.589 94.2L137.677 92.8044L143.764 94.2L139.503 89.6644Z" fill="white"/>
<path d="M165.795 83.7333L167.621 89.6644L171.882 94.2L165.795 92.8044L159.707 94.2L163.968 89.6644L165.795 83.7333Z" fill="white"/>
<path d="M195.739 89.6644L193.912 83.7333L192.086 89.6644L187.825 94.2L193.912 92.8044L200 94.2L195.739 89.6644Z" fill="white"/>
<path d="M-2.91232 104.667L-1.08601 110.598L3.17537 115.133L-2.91232 113.738L-9 115.133L-4.73862 110.598L-2.91232 104.667Z" fill="white"/>
<path d="M27.0318 110.598L25.2055 104.667L23.3792 110.598L19.1178 115.133L25.2055 113.738L31.2932 115.133L27.0318 110.598Z" fill="white"/>
<path d="M53.3233 104.667L55.1496 110.598L59.411 115.133L53.3233 113.738L47.2356 115.133L51.497 110.598L53.3233 104.667Z" fill="white"/>
<path d="M83.2674 110.598L81.4411 104.667L79.6148 110.598L75.3534 115.133L81.4411 113.738L87.5288 115.133L83.2674 110.598Z" fill="white"/>
<path d="M109.559 104.667L111.385 110.598L115.647 115.133L109.559 113.738L103.471 115.133L107.733 110.598L109.559 104.667Z" fill="white"/>
<path d="M139.503 110.598L137.677 104.667L135.85 110.598L131.589 115.133L137.677 113.738L143.764 115.133L139.503 110.598Z" fill="white"/>
<path d="M165.795 104.667L167.621 110.598L171.882 115.133L165.795 113.738L159.707 115.133L163.968 110.598L165.795 104.667Z" fill="white"/>
<path d="M195.739 110.598L193.912 104.667L192.086 110.598L187.825 115.133L193.912 113.738L200 115.133L195.739 110.598Z" fill="white"/>
<path d="M-2.91232 125.6L-1.08601 131.531L3.17537 136.067L-2.91232 134.671L-9 136.067L-4.73862 131.531L-2.91232 125.6Z" fill="white"/>
<path d="M27.0318 131.531L25.2055 125.6L23.3792 131.531L19.1178 136.067L25.2055 134.671L31.2932 136.067L27.0318 131.531Z" fill="white"/>
<path d="M53.3233 125.6L55.1496 131.531L59.411 136.067L53.3233 134.671L47.2356 136.067L51.497 131.531L53.3233 125.6Z" fill="white"/>
<path d="M83.2674 131.531L81.4411 125.6L79.6148 131.531L75.3534 136.067L81.4411 134.671L87.5288 136.067L83.2674 131.531Z" fill="white"/>
<path d="M109.559 125.6L111.385 131.531L115.647 136.067L109.559 134.671L103.471 136.067L107.733 131.531L109.559 125.6Z" fill="white"/>
<path d="M139.503 131.531L137.677 125.6L135.85 131.531L131.589 136.067L137.677 134.671L143.764 136.067L139.503 131.531Z" fill="white"/>
<path d="M165.795 125.6L167.621 131.531L171.882 136.067L165.795 134.671L159.707 136.067L163.968 131.531L165.795 125.6Z" fill="white"/>
<path d="M195.739 131.531L193.912 125.6L192.086 131.531L187.825 136.067L193.912 134.671L200 136.067L195.739 131.531Z" fill="white"/>
<path d="M-2.91232 146.533L-1.08601 152.464L3.17537 157L-2.91232 155.604L-9 157L-4.73862 152.464L-2.91232 146.533Z" fill="white"/>
<path d="M27.0318 152.464L25.2055 146.533L23.3792 152.464L19.1178 157L25.2055 155.604L31.2932 157L27.0318 152.464Z" fill="white"/>
<path d="M53.3233 146.533L55.1496 152.464L59.411 157L53.3233 155.604L47.2356 157L51.497 152.464L53.3233 146.533Z" fill="white"/>
<path d="M83.2674 152.464L81.4411 146.533L79.6148 152.464L75.3534 157L81.4411 155.604L87.5288 157L83.2674 152.464Z" fill="white"/>
<path d="M109.559 146.533L111.385 152.464L115.647 157L109.559 155.604L103.471 157L107.733 152.464L109.559 146.533Z" fill="white"/>
<path d="M139.503 152.464L137.677 146.533L135.85 152.464L131.589 157L137.677 155.604L143.764 157L139.503 152.464Z" fill="white"/>
<path d="M165.795 146.533L167.621 152.464L171.882 157L165.795 155.604L159.707 157L163.968 152.464L165.795 146.533Z" fill="white"/>
<path d="M195.739 152.464L193.912 146.533L192.086 152.464L187.825 157L193.912 155.604L200 157L195.739 152.464Z" fill="white"/>
</svg>
