<svg width="162" height="64" viewBox="0 0 162 64" fill="none" xmlns="http://www.w3.org/2000/svg">
<path d="M2.09443 20.4435C3.46345 20.6807 4.76231 19.7448 4.99712 18.3529L4.99736 18.3514L4.99974 18.3383C5.00296 18.3204 5.00878 18.2888 5.01742 18.2444C5.0347 18.1556 5.06317 18.0159 5.10454 17.8326C5.18741 17.4654 5.32119 16.9268 5.51901 16.2747C5.91748 14.9611 6.56114 13.2354 7.54046 11.5328C9.49754 8.13042 12.581 5.11995 17.6158 5.11995C22.8565 5.11995 26.9084 8.29235 31.7746 12.2412L32.034 12.4518C34.5787 14.5178 37.3754 16.7886 40.6004 18.3863C43.132 19.6404 45.9274 20.4798 49.072 20.4798C52.2026 20.4798 54.9873 19.6478 57.51 18.4028C60.7492 16.8043 63.5565 14.525 66.1099 12.4518L66.3693 12.2412C71.2355 8.29235 75.2874 5.11995 80.5281 5.11995C85.7688 5.11995 89.8206 8.29235 94.6869 12.2412L94.9463 12.4517C97.5238 14.5446 100.36 16.8474 103.638 18.448C106.137 19.6679 108.892 20.4798 111.984 20.4798C115.063 20.4798 117.807 19.6751 120.297 18.4643C123.589 16.8631 126.436 14.5517 129.022 12.4517L129.282 12.2412C134.148 8.29235 138.2 5.11995 143.44 5.11995C148.514 5.11995 151.847 8.17604 154.047 11.6315C155.142 13.3511 155.897 15.0905 156.379 16.4105C156.618 17.0663 156.786 17.608 156.892 17.9775C156.945 18.162 156.982 18.3028 157.005 18.3926C157.017 18.4374 157.025 18.4694 157.029 18.4877L157.032 18.5003L157.033 18.503L157.033 18.5041L157.033 18.505C157.35 19.8793 158.701 20.7333 160.054 20.4131C161.407 20.0926 162.249 18.7164 161.934 17.3394L159.483 17.9198C161.934 17.3394 161.934 17.3384 161.933 17.3373L161.933 17.3349L161.931 17.3289L161.928 17.3127L161.916 17.2638C161.906 17.224 161.893 17.1698 161.876 17.1021C161.841 16.9669 161.791 16.7777 161.723 16.5422C161.588 16.0717 161.383 15.4134 161.097 14.6292C160.528 13.0693 159.622 10.9686 158.272 8.84831C155.582 4.62384 150.894 0 143.44 0C136.29 0 130.944 4.34016 126.402 8.02807L126.143 8.23864C121.277 12.1875 117.225 15.3599 111.984 15.3599C106.744 15.3599 102.692 12.1875 97.8254 8.23864L97.566 8.02807C93.0239 4.34016 87.6785 0 80.5281 0C73.3777 0 68.0323 4.34016 63.4902 8.02807L63.2308 8.23864C58.3645 12.1875 54.3126 15.3599 49.072 15.3599C43.8313 15.3599 39.7794 12.1875 34.9132 8.23864L34.6537 8.02806C30.1116 4.34016 24.7662 0 17.6158 0C10.123 0 5.657 4.66947 3.19652 8.94702C1.96707 11.0844 1.18492 13.1987 0.709793 14.765C0.470806 15.5529 0.305836 16.2143 0.199152 16.6871C0.145742 16.9238 0.106742 17.114 0.0802398 17.2502C0.0669835 17.3184 0.0568382 17.373 0.0495671 17.4133L0.0407809 17.4628L0.0379454 17.4793L0.0369073 17.4854L0.0364817 17.4879C0.0362948 17.489 0.0361182 17.4901 2.51689 17.9198L0.0361181 17.4901C-0.197203 18.8838 0.724334 20.2061 2.09443 20.4435Z" fill="#DEDEDE"/>
<path d="M4.99712 40.1127C4.76231 41.5047 3.46345 42.4405 2.09443 42.2033C0.724334 41.9659 -0.197203 40.6436 0.0361181 39.2499L2.51689 39.6796C0.0361182 39.2499 0.0362948 39.2488 0.0364817 39.2477L0.0369073 39.2452L0.0379454 39.2391L0.0407809 39.2226L0.0495671 39.1731C0.0568382 39.1328 0.0669835 39.0782 0.0802398 39.01C0.106742 38.8738 0.145742 38.6836 0.199152 38.4469C0.305836 37.9741 0.470806 37.3127 0.709793 36.5248C1.18492 34.9585 1.96707 32.8442 3.19652 30.7068C5.657 26.4293 10.123 21.7598 17.6158 21.7598C24.7662 21.7598 30.1116 26.1 34.6537 29.7879L34.9132 29.9984C39.7794 33.9473 43.8313 37.1197 49.072 37.1197C54.3126 37.1197 58.3645 33.9473 63.2308 29.9984L63.4902 29.7879C68.0323 26.1 73.3777 21.7598 80.5281 21.7598C87.6785 21.7598 93.0239 26.1 97.566 29.7879L97.8254 29.9984C102.692 33.9473 106.744 37.1197 111.984 37.1197C117.225 37.1197 121.277 33.9473 126.143 29.9984L126.402 29.7879C130.944 26.1 136.29 21.7598 143.44 21.7598C150.894 21.7598 155.582 26.3836 158.272 30.6081C159.622 32.7284 160.528 34.8291 161.097 36.3891C161.383 37.1732 161.588 37.8315 161.723 38.302C161.791 38.5375 161.841 38.7267 161.876 38.8619C161.893 38.9296 161.906 38.9838 161.916 39.0236L161.928 39.0725L161.931 39.0887L161.933 39.0947L161.933 39.0971C161.934 39.0982 161.934 39.0992 159.483 39.6796L161.934 39.0992C162.249 40.4762 161.407 41.8524 160.054 42.173C158.701 42.4931 157.35 41.6391 157.033 40.2648L157.033 40.2639L157.033 40.2628L157.032 40.2601L157.029 40.2475C157.025 40.2292 157.017 40.1972 157.005 40.1524C156.982 40.0626 156.945 39.9218 156.892 39.7373C156.786 39.3678 156.618 38.8261 156.379 38.1703C155.897 36.8503 155.142 35.1109 154.047 33.3913C151.847 29.9358 148.514 26.8798 143.44 26.8798C138.2 26.8798 134.148 30.0522 129.282 34.001L129.022 34.2115C126.436 36.3115 123.589 38.6229 120.297 40.2241C117.807 41.4349 115.063 42.2396 111.984 42.2396C108.892 42.2396 106.137 41.4277 103.638 40.2078C100.36 38.6072 97.5238 36.3044 94.9463 34.2116L94.6869 34.001C89.8206 30.0522 85.7688 26.8798 80.5281 26.8798C75.2874 26.8798 71.2355 30.0522 66.3693 34.001L66.1099 34.2116C63.5565 36.2848 60.7492 38.5641 57.51 40.1626C54.9873 41.4076 52.2026 42.2396 49.072 42.2396C45.9274 42.2396 43.132 41.4002 40.6004 40.1461C37.3754 38.5484 34.5787 36.2776 32.034 34.2116L31.7746 34.001C26.9084 30.0522 22.8565 26.8798 17.6158 26.8798C12.581 26.8798 9.49754 29.8902 7.54046 33.2926C6.56114 34.9952 5.91748 36.7209 5.51901 38.0345C5.32119 38.6866 5.18741 39.2252 5.10454 39.5924C5.06317 39.7757 5.0347 39.9154 5.01742 40.0043C5.00878 40.0486 5.00296 40.0802 4.99974 40.0981L4.99736 40.1112L4.99712 40.1127Z" fill="#DEDEDE"/>
<path d="M4.99736 61.871L4.99725 61.8717C4.76281 63.2641 3.46371 64.2003 2.09443 63.9631C0.724334 63.7257 -0.197203 62.4035 0.0361181 61.0097L2.51689 61.4394C0.0361182 61.0097 0.0362948 61.0086 0.0364817 61.0075L0.0369073 61.005L0.0379454 60.9989L0.0407809 60.9824L0.0495671 60.9329C0.0568382 60.8926 0.0669835 60.838 0.0802398 60.7698C0.106742 60.6337 0.145742 60.4434 0.199152 60.2067C0.305836 59.7339 0.470806 59.0725 0.709793 58.2846C1.18492 56.7183 1.96707 54.604 3.19652 52.4666C5.657 48.1891 10.123 43.5196 17.6158 43.5196C24.7662 43.5196 30.1116 47.8598 34.6537 51.5477L34.9132 51.7583C39.7794 55.7071 43.8313 58.8795 49.072 58.8795C54.3126 58.8795 58.3645 55.7071 63.2308 51.7583L63.4902 51.5477C68.0323 47.8598 73.3777 43.5196 80.5281 43.5196C87.6785 43.5196 93.0239 47.8598 97.566 51.5477L97.8254 51.7583C102.692 55.7071 106.744 58.8795 111.984 58.8795C117.225 58.8795 121.277 55.7071 126.143 51.7583L126.402 51.5477C130.944 47.8598 136.29 43.5196 143.44 43.5196C150.894 43.5196 155.582 48.1435 158.272 52.3679C159.622 54.4882 160.528 56.5889 161.097 58.1489C161.383 58.933 161.588 59.5913 161.723 60.0618C161.791 60.2973 161.841 60.4865 161.876 60.6217C161.893 60.6894 161.906 60.7436 161.916 60.7834L161.928 60.8323L161.931 60.8485L161.933 60.8545L161.933 60.8569C161.934 60.858 161.934 60.859 159.483 61.4394L161.934 60.859C162.249 62.236 161.407 63.6122 160.054 63.9328C158.701 64.2529 157.35 63.3989 157.033 62.0246L157.033 62.0237L157.033 62.0226L157.032 62.0199L157.029 62.0073C157.027 61.9991 157.024 61.988 157.021 61.9742C157.017 61.9575 157.011 61.9367 157.005 61.9122C156.982 61.8224 156.945 61.6816 156.892 61.4971C156.786 61.1276 156.618 60.5859 156.379 59.9301C155.897 58.6101 155.142 56.8708 154.047 55.1511C151.847 51.6957 148.514 48.6396 143.44 48.6396C138.2 48.6396 134.148 51.812 129.282 55.7608L129.022 55.9714C126.436 58.0713 123.589 60.3827 120.297 61.9839C117.807 63.1947 115.063 63.9994 111.984 63.9994C108.892 63.9994 106.137 63.1875 103.638 61.9676C100.36 60.367 97.5238 58.0642 94.9463 55.9714L94.6869 55.7608C89.8206 51.812 85.7688 48.6396 80.5281 48.6396C75.2874 48.6396 71.2355 51.812 66.3693 55.7608L66.1099 55.9714C63.5565 58.0446 60.7492 60.3239 57.5101 61.9224C54.9873 63.1674 52.2026 63.9994 49.072 63.9994C45.9274 63.9994 43.1319 63.16 40.6004 61.9059C37.3754 60.3082 34.5787 58.0374 32.0341 55.9714L31.7746 55.7608C26.9084 51.812 22.8565 48.6396 17.6158 48.6396C12.581 48.6396 9.49754 51.65 7.54046 55.0524C6.56114 56.755 5.91748 58.4807 5.51901 59.7943C5.32119 60.4464 5.18741 60.985 5.10454 61.3522C5.06317 61.5355 5.0347 61.6753 5.01742 61.7641C5.00878 61.8084 5.00296 61.84 4.99974 61.8579L4.99736 61.871Z" fill="#DEDEDE"/>
</svg>
