<svg width="35" height="35" viewBox="0 0 35 35" fill="none" xmlns="http://www.w3.org/2000/svg">
<g id="ri:linkedin-fill">
<path id="Vector" d="M10.1209 7.29166C10.1205 8.06521 9.81288 8.80692 9.26563 9.35363C8.71837 9.90034 7.97635 10.2073 7.20281 10.2069C6.42926 10.2065 5.68755 9.89882 5.14084 9.35157C4.59413 8.80431 4.28721 8.06229 4.2876 7.28874C4.28798 6.5152 4.59565 5.77348 5.1429 5.22678C5.69016 4.68007 6.43217 4.37315 7.20572 4.37354C7.97927 4.37392 8.72098 4.68158 9.26769 5.22884C9.8144 5.77609 10.1213 6.51811 10.1209 7.29166ZM10.2084 12.3667H4.3751V30.625H10.2084V12.3667ZM19.4251 12.3667H13.6209V30.625H19.3668V21.0437C19.3668 15.7062 26.323 15.2104 26.323 21.0437V30.625H32.0834V19.0604C32.0834 10.0625 21.7876 10.3979 19.3668 14.8167L19.4251 12.3667Z" fill="#414141"/>
</g>
</svg>
