<svg width="35" height="35" viewBox="0 0 35 35" fill="none" xmlns="http://www.w3.org/2000/svg">
<g id="ri:twitter-fill">
<path id="Vector" d="M32.3927 8.24835C31.2798 8.74068 30.0996 9.06411 28.8912 9.20793C30.1644 8.44542 31.1171 7.24609 31.5716 5.83335C30.3758 6.54501 29.0648 7.04376 27.6998 7.31356C26.7819 6.33148 25.5653 5.68017 24.2391 5.46087C22.9129 5.24157 21.5513 5.46656 20.3662 6.10088C19.181 6.7352 18.2387 7.7433 17.6856 8.96846C17.1325 10.1936 16.9996 11.5672 17.3077 12.8756C14.8824 12.7543 12.5097 12.1242 10.3438 11.0263C8.17781 9.92835 6.26699 8.38714 4.73539 6.50272C4.19331 7.4338 3.90845 8.49222 3.90997 9.5696C3.90997 11.6842 4.98768 13.5523 6.62247 14.6461C5.65416 14.6155 4.70717 14.354 3.86039 13.8833V13.9577C3.86035 15.3663 4.34752 16.7315 5.23929 17.8218C6.13106 18.9122 7.37251 19.6605 8.7531 19.9398C7.85424 20.1837 6.91165 20.2196 5.99685 20.0448C6.38611 21.2573 7.14487 22.3176 8.16685 23.0773C9.18882 23.8369 10.4228 24.2579 11.696 24.2813C10.4307 25.275 8.98189 26.0097 7.43244 26.4431C5.883 26.8765 4.26331 27.0002 2.66602 26.8071C5.45394 28.5999 8.69929 29.5518 12.0139 29.5488C23.2343 29.5488 29.3681 20.2548 29.3681 12.1946C29.3681 11.9321 29.3623 11.6667 29.3506 11.4056C30.5441 10.5428 31.5742 9.47271 32.3927 8.24835Z" fill="#414141"/>
</g>
</svg>
